<svg xmlns="http://www.w3.org/2000/svg" viewBox="0 0 1000 1000" xml:space="preserve"><path d="M954.7 855 774.6 674.8c-13.5-13.5-30.8-20.8-48.4-22.5 54.3-67.7 87-153.5 87-246.8C813.1 187.4 635.7 10 417.6 10S22.1 187.4 22.1 405.5 199.5 801 417.6 801c82.3 0 158.8-25.3 222.1-68.5.4 19.6 8 39.1 23 54.1l180.2 180.2c15.4 15.5 35.7 23.2 55.9 23.2 20.2 0 40.5-7.7 55.9-23.2 30.9-30.9 30.9-80.9 0-111.8zM417.6 669.2c-145.4 0-263.7-118.3-263.7-263.7s118.3-263.7 263.7-263.7 263.7 118.3 263.7 263.7S563 669.2 417.6 669.2z"/></svg>